# xmcd CD database file
#
# Track frame offsets:
#	150
#	9869
#	25511
#	35880
#	49580
#	63980
#	74726
#	95025
#	102657
#	117055
#
# Disc length: 1767 seconds
#
# Revision: 0
# Processed by: cddbd v1.4PL0 Copyright (c) Steve Scherf et al.
# Submitted via: Feurio! 1.66 - http://www.feurio.com
#
DISCID=8406e50a
DTITLE=Frank The Country Boy - Out of sight  and  out of mind ...   Storys to 
DTITLE=sing
DYEAR=1900
DGENRE=Country
TTITLE0=??? - I couldn´t keep from cryin´
TTITLE1=??? - Navajo
TTITLE2=??? - Delia's Gone
TTITLE3=??? - Give my love to Rose
TTITLE4=??? - Out of sight, out of mind
TTITLE5=??? - Get rhythm
TTITLE6=??? - Ballad of Lucy Jordan
TTITLE7=??? - No setting sun
TTITLE8=??? - Ballad of Annie Palmer
TTITLE9=??? - Far side banks of Jordan
EXTD=Songwriter: Various\r\nKomponist: Various\r\nArrangement: Frank 
EXTD=Turek\r\nKommentar: (c)2003\r\n
EXTT0=Songwriter: Marty Robbins\r\nKommentar: I couldn´t keep from cryin´ 
EXTT0=41_mixdown01\r\n
EXTT1=Songwriter: John R. Cash\r\nKommentar: V3 Navajo 82b_mixdown01 - with 
EXTT1=Luis Amorin\r\n
EXTT2=Songwriter: Traditional and John R. Cash\r\nKommentar: Delia´s gone 
EXTT2=41_mixdown01\r\n
EXTT3=Songwriter: John R. Cash\r\nKommentar: Give my love to Rose 442 
EXTT3=D_mixdown02\r\n
EXTT4=Songwriter: Kris Kristofferson\r\nKommentar: Out of sight, out of mind 
EXTT4=103_mixdown01\r\n
EXTT5=Songwriter: John R. Cash\r\nKommentar: Get rhythm 11spar452_mixdown01\r\n
EXTT6=Songwriter: Shel Silverstein\r\nKommentar: Ballad of Lucy 
EXTT6=Jordan763_mixdown01\r\n
EXTT7=Songwriter: John R. Cash\r\nKommentar: No setting sun_mixdown01\r\n
EXTT8=Songwriter: John R. Cash\r\nKommentar: Ballad of Annie Palmer 
EXTT8=911_mixdown01\r\n
EXTT9=Songwriter: Terry Smith\r\nKommentar: Far side banks of Jordan 
EXTT9=51_mixdown1\r\n
PLAYORDER=
